# xmcd
#
# Track frame offsets: 
#        150
#        13406
#        26902
#        37846
#        58857
#        74398
#        90398
#        100669
#        118641
#        130880
#        140479
#        154222
#        164210
#        174716
#        186814
#        195915
#        207856
#        220641
#        242200
#
# Disc length: 4440 seconds
#
# Revision: 3
# Processed by: cddbd v1.5.2PL0 Copyright (c) Steve Scherf et al.
# Submitted via: ExactAudioCopyFreeDBPlugin 1.0
#
DISCID=13115613
DTITLE=The Shadows - Essential Collection  [CD1]
DYEAR=2004
DGENRE=Pop
TTITLE0=Apache  (1960)
TTITLE1=Guitar tango  (1962)
TTITLE2=Mary Anne  (1965)
TTITLE3=Bridge over troubled water  (1979)
TTITLE4=Parisienne walkways  (1979)
TTITLE5=Don't cry for me Argentina (Evita)  (1978)
TTITLE6=The war lord  (1965)
TTITLE7=Black is black  (1980)
TTITLE8=Back home  (1961)
TTITLE9=It's been a blue day  (1963)
TTITLE10=You're the one that I want  (1979)
TTITLE11=Don't make my baby blue  (1965)
TTITLE12=Shazam  (1963)
TTITLE13=Genie with the brown lamp  (1964)
TTITLE14=Les girls  (1963)
TTITLE15=Theme for young lovers  (1964)
TTITLE16=Walk don't run  (1960)
TTITLE17=The dreams I dream  (1966)
TTITLE18=DATA
EXTD=Two CD Collection YEAR: 2004
EXTT0=
EXTT1=
EXTT2=
EXTT3=
EXTT4=
EXTT5=
EXTT6=
EXTT7=
EXTT8=
EXTT9=
EXTT10=
EXTT11=
EXTT12=
EXTT13=
EXTT14=
EXTT15=
EXTT16=
EXTT17=
EXTT18=
PLAYORDER=
